<?xml version="1.0" encoding="utf-8"?>
<!-- Generator: Adobe Illustrator 22.0.1, SVG Export Plug-In . SVG Version: 6.00 Build 0)  -->
<svg version="1.1" id="_x37_5e88a1c-cdb2-4bbf-9d2b-141b8cce0758"
	 xmlns="http://www.w3.org/2000/svg" xmlns:xlink="http://www.w3.org/1999/xlink" x="0px" y="0px" viewBox="0 0 50 50"
	 style="enable-background:new 0 0 50 50;" xml:space="preserve">
<style type="text/css">
	.st0{fill:#FFFFFF;}
	.st1{fill:#05C2F3;}
	.st2{fill:#04367B;}
</style>
<rect x="0.1" y="0.1" class="st0" width="49.8" height="49.8"/>
<title>Paytm</title>
<g id="_x31_57eced0-d930-49e0-8acc-f70ae55087e3">
	<g>
		<path class="st1" d="M49.1,32.2c-0.2,0.2-0.5,0.2-0.7,0.2c-0.6,0-1.2,0-1.7,0c-0.6,0-0.7-0.1-0.7-0.7c0-2.6,0-5.3,0-7.9
			c0-0.7-0.2-0.9-0.9-0.9c-0.7,0-0.9,0.2-0.9,0.9c0,2.6,0,5.3,0,8.1c0,0.6-0.1,0.7-0.7,0.7h-1.7c-0.6,0-0.7-0.1-0.7-0.7
			c0-1.6,0-3.3,0-4.9c0-1,0-2.1,0-3.2c0-0.6-0.2-0.9-0.9-0.9c-0.7,0-0.9,0.2-0.9,0.8c0,2.6,0,5.4,0,8.1c0,0.6-0.1,0.7-0.7,0.7
			s-1.3,0-1.8,0c-0.5,0-0.6-0.1-0.6-0.6c0-3.8,0-7.7,0-11.5c0-0.5,0.1-0.6,0.6-0.6c0.6,0,1.3,0,1.8,0c0.5,0,0.6,0.1,0.7,0.6
			c0.5-0.3,1-0.6,1.7-0.7c0.9-0.1,1.8,0.1,2.5,0.8c0.2,0.1,0.2,0.1,0.5,0c2-1.5,4.6-0.7,5.3,1.7c0,0,0,0,0.1,0.1v10H49.1z"/>
		<path class="st2" d="M0.8,20.1c0.2-0.2,0.5-0.2,0.7-0.2c1.4,0,2.9,0,4.3,0c2,0,3.1,1.2,3.1,3.1c0,1.2,0.1,2.3,0,3.3
			c-0.2,1.5-1.3,2.4-2.8,2.4c-0.6,0-1.3,0-1.8,0c-0.3,0-0.3,0.1-0.3,0.3c0,0.9,0,1.8,0,2.6c0,0.6-0.1,0.7-0.7,0.7s-1.3,0-1.8,0
			c-0.2,0-0.5-0.1-0.6-0.2L0.8,20.1z M3.9,24.3v0.1c0,0.3-0.2,0.9,0.1,1.2c0.2,0.2,0.8,0,1.2,0c0.3,0,0.6-0.2,0.6-0.6
			c0-0.5,0-1,0-1.5c0-0.3-0.2-0.6-0.6-0.6s-0.7,0-1,0c-0.2,0-0.2,0.1-0.2,0.2C3.9,23.6,3.9,24,3.9,24.3z"/>
		<path class="st2" d="M17.9,27.1c0,1.4,0,2.6,0,4c0,0.9-0.5,1.4-1.4,1.4c-1.3,0-2.5,0-3.9,0c-1.7,0-2.9-1.2-3-2.9
			c0-1-0.1-2.2,0-3.2c0.2-1.4,1.3-2.2,2.5-2.4c0.6-0.1,1.3,0,1.8-0.1c0.5,0,0.6-0.1,0.6-0.6c0-0.5-0.1-0.6-0.6-0.6
			c-0.8,0-1.7,0-2.5,0c-0.5,0-0.7-0.1-0.7-0.7c0-0.6,0-1.2,0-1.7c0-0.3,0.2-0.6,0.5-0.6c1.3,0,2.4-0.1,3.7,0
			c1.8,0.2,2.9,1.3,2.9,3.1C17.9,24.4,17.9,25.7,17.9,27.1z M14.7,28.2c0-0.2,0-0.6,0-0.8c0-0.3-0.2-0.6-0.6-0.6c-0.2,0-0.6,0-0.8,0
			c-0.3,0-0.6,0.2-0.6,0.6c0,0.6,0,1.2,0,1.6c0,0.3,0.2,0.6,0.6,0.6c0.5,0,1,0.3,1.4-0.5c0-0.1,0-0.1,0-0.2
			C14.7,28.8,14.7,28.6,14.7,28.2L14.7,28.2z"/>
		<path class="st2" d="M27.2,25c0,1.4,0,2.9,0,4.3c0,2-1.3,3.2-3.2,3.2c-1.2,0-2.2,0-3.3,0c-0.5,0-0.7-0.1-0.7-0.7
			c0-0.6,0-1.3,0-1.8c0-0.5,0.1-0.6,0.6-0.6c0.8,0,1.7,0,2.5,0c0.1,0,0.3,0,0.5,0c0.3,0,0.5-0.1,0.5-0.5c0-0.3-0.2-0.5-0.5-0.5
			c-0.5,0-0.8,0-1.3,0c-2,0-3.2-1.3-3.3-3.2c0-1.6,0-3.1,0-4.7c0-0.6,0.1-0.7,0.7-0.7s1.2,0,1.7,0s0.7,0.1,0.7,0.7
			c0,1.3,0,2.6,0,3.9c0,0.7,0.1,0.8,0.8,0.8c1,0,1.2,0,1.2-1.2c0-1.3,0-2.5,0-3.7c0-0.5,0.1-0.6,0.6-0.6c0.6,0,1.3,0,1.8,0
			c0.5,0,0.7,0.1,0.7,0.7C27.2,22,27.2,23.5,27.2,25z"/>
		<path class="st1" d="M30.2,27.6c0-1.5,0-2.9,0-4.4c0-0.3-0.1-0.5-0.5-0.3c-0.2,0-0.6,0-0.8,0c-0.3,0-0.6-0.1-0.6-0.6
			c0-0.7,0-1.4,0-2.1c0-0.3,0.2-0.6,0.6-0.6c1.2,0,2.1-0.6,2.6-1.5c0.2-0.3,0.5-0.7,0.9-0.8c0.5-0.2,0.7,0,0.8,0.5
			c0,0.5,0,0.9,0,1.5c0,0.3,0.1,0.5,0.5,0.5c0.2,0,0.5,0,0.7,0c0.3,0,0.6,0.2,0.6,0.6c0,0.7,0,1.4,0,2.1c0,0.3-0.2,0.6-0.6,0.6
			c-0.2,0-0.6,0-0.8,0s-0.3,0.1-0.3,0.3c0,1.2,0,2.3,0,3.5c0,1.7,0,3.5,0,5.2c0,0.6-0.1,0.7-0.7,0.7c-0.6,0-1.2,0-1.7,0
			c-0.6,0-0.7-0.1-0.7-0.7C30.2,30.5,30.2,29.1,30.2,27.6z"/>
	</g>
</g>
</svg>
