<svg xmlns="http://www.w3.org/2000/svg" viewBox="0 0 21.313 18">
  <defs>
    <style>
      .cls-1 {
        fill: #FFFFFF;
      }

      .cls-2 {
        fill: #ED1C24;
      }
    </style>
  </defs>
  <g id="Logo_color" transform="translate(-1464 -664.02)">
    <path id="Path_299" data-name="Path 299" class="cls-1" d="M41.088,46.493l-.805,3.194h6.8c.009.04.021.062.016.08-.152.576-.309,1.151-.459,1.727a3.461,3.461,0,0,1-1.216,1.91,3,3,0,0,1-1.952.631c-1.225-.013-2.449-.018-3.674-.026a2.066,2.066,0,0,0-.235.008.666.666,0,0,0-.572.395,2.045,2.045,0,0,0-.116.332c-.228.864-.449,1.73-.682,2.593a3.626,3.626,0,0,1-.848,1.581,3.04,3.04,0,0,1-2.153.978c-1.051.04-2.1.014-3.155.016a.3.3,0,0,1-.061-.018A1.957,1.957,0,0,1,32,59.7q1.449-5.383,2.906-10.763a4.521,4.521,0,0,1,.385-.956A2.759,2.759,0,0,1,37.41,46.54a4.74,4.74,0,0,1,.7-.053c.919-.006,1.837,0,2.756,0C40.931,46.483,40.993,46.488,41.088,46.493Z" transform="translate(1435.166 622.1)"/>
    <path id="Path_300" data-name="Path 300" class="cls-1" d="M125.142,4.519c.1-.392.192-.757.3-1.116.149-.5.286-1.012.473-1.5A2.816,2.816,0,0,1,128.572.04c1.8-.074,3.594-.02,5.391-.024.068,0,.136.009.2.014.005.033.014.049.009.061q-.472,1.391-.947,2.781a2.529,2.529,0,0,1-.122.28,2.222,2.222,0,0,1-2.067,1.355c-1.891.032-3.782.021-5.673.027C125.3,4.534,125.239,4.526,125.142,4.519Z" transform="translate(1351.14 664.02)"/>
    <path id="Path_301" data-name="Path 301" class="cls-2" d="M8.988.088a.488.488,0,0,1,0,.109c-.313.911-.62,1.824-.944,2.731A2.418,2.418,0,0,1,5.735,4.551c-1.875,0-3.75-.017-5.625-.027-.031,0-.061-.006-.11-.011a1.483,1.483,0,0,1,.023-.181c.149-.593.286-1.189.452-1.776A3.264,3.264,0,0,1,2.982.082,3.178,3.178,0,0,1,3.752.008c1.522.02,3.043.053,4.565.08C8.535.091,8.754.088,8.988.088Z" transform="translate(1464 664.014)"/>
  </g>
</svg>
