<svg xmlns="http://www.w3.org/2000/svg" viewBox="0 0 13.955 15.719">
  <defs>
    <style>
      .cls-1 {
        fill: #002e6e;
      }
    </style>
  </defs>
  <g id="Call" transform="translate(-914.707 -551.14)">
    <g id="Group_248" data-name="Group 248" transform="translate(914.707 551.14)">
      <path id="Path_787" data-name="Path 787" class="cls-1" d="M5.948,3.979c-.466.308-.91.609-1.354.91a4.1,4.1,0,0,0-.346.286C3.669,5.716,3.631,5.889,4,6.6a13.237,13.237,0,0,0,3.686,4.633c.511.4.715.436,1.249.06.594-.414,1.136-.9,1.745-1.391,1.076,1.015,2.189,2.061,3.347,3.152-1.121,1.211-2.219,2.429-3.971,2.648a2.172,2.172,0,0,1-1.2-.2A15.55,15.55,0,0,1,.269,5.122,8.076,8.076,0,0,1,.1,4.272a2.508,2.508,0,0,1,.6-2.023A9.727,9.727,0,0,1,3.571,0C4.376,1.346,5.158,2.663,5.948,3.979Z" transform="translate(-0.072)"/>
    </g>
  </g>
</svg>
