<svg xmlns="http://www.w3.org/2000/svg" viewBox="0 0 22.498 18">
  <defs>
    <style>
      .cls-1 {
        fill: #002e6e;
      }
    </style>
  </defs>
  <g id="Camera" transform="translate(-705 -438)">
    <g id="Group_37" data-name="Group 37" transform="translate(705 438)">
      <path id="Path_246" data-name="Path 246" class="cls-1" d="M11.25,18q-4.443,0-8.886,0A2.272,2.272,0,0,1,.45,17.076,2.155,2.155,0,0,1,0,15.867c-.009-.153,0-.307,0-.461q0-4.867,0-9.734A2.261,2.261,0,0,1,1.723,3.446a2.731,2.731,0,0,1,.62-.065c.83-.007,1.659,0,2.489,0a1.026,1.026,0,0,0,1.041-.745c.212-.628.417-1.258.628-1.886A1.023,1.023,0,0,1,7.541,0h7.411a1.024,1.024,0,0,1,1.041.744c.207.617.41,1.234.615,1.852a1.04,1.04,0,0,0,1.089.782c.824,0,1.647,0,2.471,0A2.265,2.265,0,0,1,22.5,5.706q0,5,0,9.992a2.264,2.264,0,0,1-1.775,2.242A2.889,2.889,0,0,1,20.1,18Q15.674,18,11.25,18Zm0-2.249a5.625,5.625,0,1,0-5.624-5.636A5.637,5.637,0,0,0,11.247,15.749ZM19.462,7.2a.788.788,0,0,0,.786-.783.789.789,0,1,0-1.578,0A.792.792,0,0,0,19.462,7.2Z" transform="translate(0.001 0.001)"/>
      <path id="Path_247" data-name="Path 247" class="cls-1" d="M36.618,35.245a3.37,3.37,0,1,1,3.367-3.369A3.381,3.381,0,0,1,36.618,35.245Z" transform="translate(-25.36 -21.751)"/>
    </g>
  </g>
</svg>
