<svg xmlns="http://www.w3.org/2000/svg" viewBox="0 0 18.004 18">
  <defs>
    <style>
      .cls-1 {
        fill: #002e6e;
      }
    </style>
  </defs>
  <g id="Collection" transform="translate(-1012.768 -645.02)">
    <path id="Path_219" data-name="Path 219" class="cls-1" d="M14.161,9.685H18V8.3h-3.8l-.039-.065L15.344,7.1c-.329-.334-.654-.654-.923-.923-.958.932-1.933,1.885-2.916,2.843.975.953,1.946,1.907,2.895,2.838.3-.3.628-.624.979-.971C15,10.508,14.6,10.118,14.161,9.685ZM3.813,8.25a.381.381,0,0,0-.022.065H0V9.7H3.8l.039.065c-.4.39-.806.776-1.179,1.135l.923.936q1.443-1.4,2.929-2.847C5.525,8.034,4.554,7.08,3.592,6.144c-.3.295-.624.62-.958.953C3.025,7.475,3.419,7.86,3.813,8.25ZM9,6.517c.975-1,1.928-1.972,2.851-2.912-.3-.308-.624-.633-.992-1-.373.386-.763.784-1.17,1.2V0H8.3V3.787c-.017.013-.039.022-.056.035L7.1,2.656c-.334.334-.659.659-.945.94Zm2.856,7.925c-.958-.984-1.907-1.959-2.864-2.947-.958.979-1.911,1.954-2.843,2.9.295.3.615.633.975,1.005.386-.4.776-.8,1.2-1.239V18H9.706V14.143c.238.247.433.451.628.65s.39.394.585.589C11.262,15.04,11.582,14.72,11.855,14.442ZM7.618,9A1.387,1.387,0,1,0,9,7.609,1.386,1.386,0,0,0,7.618,9Z" transform="translate(1012.768 645.02)"/>
  </g>
</svg>
