<svg xmlns="http://www.w3.org/2000/svg" viewBox="0 0 16.056 18.02">
  <defs>
    <style>
      .cls-1 {
        fill: #22386c;
      }
    </style>
  </defs>
  <g id="Notification" transform="translate(-802 -743)">
    <path id="Path_815" data-name="Path 815" class="cls-1" d="M8.029,14.872c-2.337,0-4.675,0-7.012,0-.283,0-.586.077-.81-.232-.179-.247-.321-.354-.077-.726a13.46,13.46,0,0,1,1.579-1.859,2.566,2.566,0,0,0,.734-1.913,17.9,17.9,0,0,1,.1-3.564,5.011,5.011,0,0,1,3.4-4.081,3.016,3.016,0,0,1,.778-.277c.227-.017.261-.194.267-.371.009-.252,0-.5.006-.756C7.018.258,7.3-.044,8.218.005c.594.032.736.553.785,1.066a2.092,2.092,0,0,1,0,.412c-.048.456.083.65.6.8a5.619,5.619,0,0,1,3.975,5.249c.01.939.016,1.879,0,2.818a1.972,1.972,0,0,0,.675,1.622c.552.494.873,1.2,1.5,1.651a.644.644,0,0,1,.238.85.766.766,0,0,1-.8.4q-3.575-.009-7.149,0S8.029,14.871,8.029,14.872Z" transform="translate(802 743)"/>
    <path id="Path_816" data-name="Path 816" class="cls-1" d="M42.247,112.826c.71,0,1.42.014,2.129-.006.328-.009.442.05.369.416a2.567,2.567,0,0,1-5.026.051c-.075-.36.006-.488.4-.469C40.826,112.85,41.537,112.827,42.247,112.826Z" transform="translate(767.771 645.714)"/>
  </g>
</svg>
