<svg xmlns="http://www.w3.org/2000/svg" viewBox="0 0 18.223 18">
  <defs>
    <style>
      .cls-1 {
        fill: #22386c;
      }
    </style>
  </defs>
  <g id="Upload" transform="translate(-646.257 -684)">
    <g id="lJBB4S.tif_1_" transform="translate(646.257 684)">
      <g id="Group_38" data-name="Group 38">
        <path id="Path_248" data-name="Path 248" class="cls-1" d="M14.324,0a1.865,1.865,0,0,1,.851.572Q16.742,2.123,18.3,3.684,19.412,4.8,20.52,5.911a1.876,1.876,0,0,1,.348.444c.108.206.063.326-.163.374a2.714,2.714,0,0,1-.538.056c-.775.006-1.549,0-2.324,0h-.076v.076q0,2.748,0,5.5a2.071,2.071,0,0,1-.732,1.625,1.994,1.994,0,0,1-1.1.49,2.992,2.992,0,0,1-.34.021c-.9,0-1.792,0-2.688,0a2.093,2.093,0,0,1-1.372-.475,2.029,2.029,0,0,1-.737-1.25,2.368,2.368,0,0,1-.035-.4q0-2.751,0-5.5v-.08h-.074q-1.179,0-2.358,0a1.893,1.893,0,0,1-.521-.058l-.038-.013a.216.216,0,0,1-.138-.326,1.653,1.653,0,0,1,.339-.464c.127-.135.259-.265.389-.4l2.753-2.765Q12.153,1.721,13.2.679c.121-.121.249-.236.379-.348A1.36,1.36,0,0,1,14.162,0Z" transform="translate(-5.155)"/>
        <path id="Path_249" data-name="Path 249" class="cls-1" d="M0,40.678a.435.435,0,0,1,.045-.005H1.352l.049,0v2.779a.7.7,0,0,0,.574.709.781.781,0,0,0,.155.012H16.085a.7.7,0,0,0,.72-.574.906.906,0,0,0,.012-.173q0-1.338,0-2.677v-.074h1.4c0,.019,0,.04,0,.06,0,.906.009,1.812,0,2.717a2.058,2.058,0,0,1-1.164,1.9,1.968,1.968,0,0,1-.94.222q-7,0-14.007,0A2.1,2.1,0,0,1,.072,44.016c-.03-.111-.041-.227-.061-.34,0-.016-.008-.033-.012-.05Z" transform="translate(0 -27.578)"/>
      </g>
    </g>
  </g>
</svg>
