<svg xmlns="http://www.w3.org/2000/svg" viewBox="0 0 18 18">
  <defs>
    <style>
      .cls-1 {
        fill: #22386c;
      }
    </style>
  </defs>
  <g id="Whatsupp" transform="translate(-856.487 -547.97)">
    <g id="Group_246" data-name="Group 246" transform="translate(856.487 547.97)">
      <g id="Group_247" data-name="Group 247" transform="translate(0 0)">
        <path id="Path_785" data-name="Path 785" class="cls-1" d="M0,17.989c.139-.553.268-1.032.4-1.522.246-.9.514-1.8.739-2.714a1,1,0,0,0-.064-.639,9,9,0,1,1,4.037,3.874,1.354,1.354,0,0,0-.792-.085c-1.328.319-2.645.671-3.972,1.022A2.5,2.5,0,0,1,0,17.989Zm2.109-2.054c.824-.224,1.563-.4,2.291-.617a1.138,1.138,0,0,1,1,.117,7.012,7.012,0,0,0,4.476.9,7.512,7.512,0,0,0,6.585-8.43A7.562,7.562,0,0,0,7.549,1.64a7.454,7.454,0,0,0-4.9,11.219,1.051,1.051,0,0,1,.086.724C2.559,14.338,2.334,15.083,2.109,15.934Z" transform="translate(0 0.011)"/>
        <path id="Path_786" data-name="Path 786" class="cls-1" d="M48.151,53.481A6.723,6.723,0,0,1,44.393,51.7,17.473,17.473,0,0,1,42.08,49a2.709,2.709,0,0,1,.043-3.491.994.994,0,0,1,1.788.255,4.947,4.947,0,0,0,.364.883,1.046,1.046,0,0,1-.236,1.5c-.3.266-.278.511-.064.83a6.311,6.311,0,0,0,2.709,2.331.644.644,0,0,0,.91-.2c.771-.894.782-.883,1.842-.373.139.075.289.138.428.213a1.056,1.056,0,0,1,.278,1.841A2.515,2.515,0,0,1,48.151,53.481Z" transform="translate(-37.027 -40.26)"/>
      </g>
    </g>
  </g>
</svg>
