<svg id="30d5a719-1d67-4868-a82a-b43f83525d2b" data-name="Layer 1" xmlns="http://www.w3.org/2000/svg" viewBox="0 0 500 500"><title>ico</title><path d="M484.94,250.58c-17.18-5.4-32.08-9.49-46.4-15.06-3.15-1.22-5.17-7.45-6.17-11.74-4.35-18.62-5.67-38.34-12.56-55.91-26.57-67.81-78.67-105.29-149.5-114.44C177,41.37,90.84,104.12,70.88,195.5,52.1,281.44,97.76,367.22,180.38,401.21c3.38,1.39,6.83,2.63,10.16,4.13,6.45,2.91,9.8,7.72,9.58,15.1-.28,9.75-.12,19.51-.18,29.27-.05,9.52-2.5,11.63-11.6,9-52-15-95.49-42.55-127.63-86.69C-43.76,228.53,40.68,28.22,216.43,2.45c122.76-18,240.11,64.92,263.45,187.05C483.67,209.33,483.34,229.94,484.94,250.58Z" style="fill:#22386c"/><path d="M349.16,435.71c-17.34,14.52-37,21.08-58.3,23-22.58,2-43.64-3.49-63.07-14.75C216,437.08,211.84,422.15,217,407.12c13.63,12.63,29.06,21.45,47.43,24.13,23.93,3.48,46.82-.94,68.64-10.58,10.54-4.65,15.78-13.83,16.59-27.38-17.09,16.65-37.28,22-58.9,23.54-20.86,1.5-40.8-1.69-59.09-12.18-21.12-12.11-21.22-30.57-.48-43.19,33.57-20.43,87.46-15.75,116.3,10.08.36.32,1.05.27,2.45.58V348.91c20.14,18.66,42.37,26,67.33,24.58,23.93-1.36,48-2.74,64.46-24.54,6,19.23,2.92,28.57-13.7,37.76-37.67,20.85-74.55,19.2-110.24-5.13-2-1.34-3.88-2.79-6-4.3-2,10.67,2.44,19.43,13.73,25.82,18.66,10.56,39,13.8,60.06,11.86,9.66-.89,19.76-2,28.57-5.59,10.34-4.25,19.49-11.38,28.55-16.89,5.18,20.12-1.41,34.3-23.82,41.82-35.37,11.89-70.1,12.09-102.19-10.55-1.18-.84-2.53-1.43-4.32-2.43-1.82,11,3.43,17.35,11.56,22.15C386.84,457,411.51,459.38,437.27,455c17.46-2.94,33.91-7.75,44.74-23.78,5.15,22,.77,34.73-19.46,42.86-37,14.89-73.63,15.34-107.15-10.48-.93-.72-1.95-1.32-3.64-2.45-2.54,21.25-17.22,29.22-35,34.07-26.77,7.27-53.12,6.37-78.88-4.06-19.09-7.73-26.27-23-21-43.42,29.2,27.6,82.78,33.89,116.9,13.8C343.24,456,349.71,448.71,349.16,435.71Z" style="fill:#22386c"/><path d="M284,232.79c-.9,14-6.46,25.61-21,31.67C223.47,281,184,297.76,144.37,314.23c-11.58,4.81-20.92,2.15-25.48-6.47-4.3-8.13-1.43-17,8.35-24.37,26-19.64,52-39.34,78.29-58.6,9.11-6.67,13.24-15,14.52-26.06,3.78-32.67,8-65.28,12.45-97.87,1.55-11.48,7.11-16.31,17.12-16.42s15.75,4.69,17.32,16.22c5.84,42.84,11.31,85.73,16.9,128.61C284,230.17,283.94,231.09,284,232.79Z" style="fill:#22386c"/><path d="M416.42,316.85c-17.61.29-34.62-2.28-50.26-10.93-21.36-11.81-21.9-30.8-1.33-44,27.24-17.53,80-16.5,106.48,2.1,7.77,5.46,14.44,11.75,12,22.44-.87,3.84-2.45,8.13-5.1,10.83C464.68,311,445.83,316.74,416.42,316.85Z" style="fill:#22386c"/><path d="M483.39,308.42c0,7.25,1,15.51-.4,23.35-.71,4.06-5.05,8.1-8.7,10.92-13.49,10.44-29.52,14.06-46.11,15.44-21.3,1.77-42.12-.31-61.31-10.42-15.94-8.4-20.74-21.33-15-36.94C396.05,336.85,439.7,343.54,483.39,308.42Z" style="fill:#22386c"/></svg>