<svg id="5f3bde01-707a-4064-81e3-710caf21e65e" data-name="Layer 1" xmlns="http://www.w3.org/2000/svg" viewBox="0 0 500 500"><title>ico</title><path d="M234.34,352c9.47,0,18.95.1,28.42,0,2.9-.05,4.72,1.14,5.71,3.61s1.65,4.88,2.37,7.35C280,394.16,300.35,415,330,427.67c45.58,19.51,102.57-2.09,124.63-45.14,18.65-36.4,12.65-82.33-14.88-113.44a95.53,95.53,0,0,0-33-24.4c-4-1.8-4-1.83-3.18-6,1.48-7.17,2.89-14.35,4.45-21.49,1.39-6.39,4-7.71,10-5.21q47.7,19.76,69.48,66.58a131.72,131.72,0,0,1,12.4,60.81C498,392.06,465.22,440.22,419.45,460a111.16,111.16,0,0,1-41.11,9.27q-13.12.39-26.27.12c-8.57-.18-16.64-2.88-24.66-5.62-18.16-6.19-35-14.8-49.69-27.31-19-16.15-31.48-36.51-38.86-60.12-2.34-7.51-4.05-15.23-6-22.77-2.26,3-4.56,6.24-7.11,9.31-21.59,26.05-49.12,41.55-82.76,45.51C78.05,416,17.05,372,3,307.77A125.79,125.79,0,0,1,71.78,166.93a119.4,119.4,0,0,1,53.2-11.3c10.53.1,21,.57,31.19,3.12,26.74,6.64,48.75,20.93,66.67,41.62,15.44,17.84,25.78,38.29,29.75,61.65,5,29.18-.36,56.66-14.47,82.55-1.27,2.33-2.65,4.59-4,6.89C234.13,351.5,234.19,351.59,234.34,352ZM128.12,195v-.09l-1.94-.09c-8.56-.21-10,3.12-9.26,9.47.64,5.75-1.69,10.06-6.74,12.87a46.23,46.23,0,0,1-4.24,2.08C92.45,225,84.46,235,83,249.73c-1.29,12.88,2.66,23.74,13.32,31.51,3.56,2.6,7.63,4.51,11.56,6.57,8.57,4.49,17.24,8.8,25.79,13.32,3.67,1.94,5.42,5.43,6.41,9.3.63,2.49.17,4.92-1.8,6.51-2.65,2.13-5.41,4.38-8.5,5.64-7.11,2.89-14.41,2-21.48-.48-4.25-1.5-8.34-3.45-12.5-5.21-5-2.11-7.68-1.07-9.64,4-1,2.67-1.93,5.41-2.71,8.16-2.53,9-.79,12.42,8.13,15.16,4.85,1.49,9.9,2.33,14.84,3.52,6.34,1.53,9,5.28,8.45,11.74a19.69,19.69,0,0,0,.21,4.91c.57,3.24,2.56,4.84,5.84,4.9,1.85,0,3.72-.11,5.57,0,7.87.27,12.21-2.71,11.3-11.34A12.16,12.16,0,0,1,144,345.5c2.09-1.26,4.3-2.3,6.47-3.4,14.19-7.21,21.8-18.57,22.14-34.67q.45-21-17.25-32.1c-3.45-2.15-7.23-3.79-10.88-5.62-7.3-3.67-14.67-7.18-21.89-11-3.65-1.93-5.63-5.45-6.84-9.32a5.67,5.67,0,0,1,1.89-6.58c3.14-2.57,6.6-4.47,10.78-4.11,3.7.32,7.38,1,11.07,1.5,5.88.81,11.76,1.72,17.66,2.32a5,5,0,0,0,3.76-1.55,29.55,29.55,0,0,0,4.5-7c2.46-5.68.74-11-4.42-14.49a24.07,24.07,0,0,0-11.65-4.07c-6.94-.54-10.85-4.69-10.92-11.65,0-1,0-2,0-3-.25-3.58-1.91-5.34-5.5-5.67C131.28,194.89,129.69,195,128.12,195Z" style="fill:#22386c"/><path d="M289.45,297.08c0-8.29,0-16.25,0-24.21,0-2.15.24-4.31.17-6.46a3.91,3.91,0,0,1,2.14-3.91,27.3,27.3,0,0,1,5.3-2.25c40.77-11,64.94-38.23,73.68-78.58,6.41-29.56-1.81-56.7-20.21-80.5-16.21-21-38-32.79-64.2-35.31-40-3.84-72.21,10.74-96,43.21-3.45,4.69-5.81,10.2-8.58,15.38-1.66,3.12-1.57,3.16-5,2.46l-22.34-4.59c-.28-.06-.57-.1-.84-.17-5.08-1.32-6.5-3.87-4.58-8.78A125.91,125.91,0,0,1,163.5,86.31c20.05-28.25,47.46-45.53,81-52.79,55.49-12,114.27,13,144.52,61,10.93,17.35,17.16,36.27,17.84,56.82.32,9.68.33,19.39,0,29.06-.29,7.87-3,15.31-5.53,22.71-6.06,17.58-14.4,33.92-26.39,48.26-16.22,19.41-36.81,32.23-60.78,39.72-7.31,2.29-14.86,3.78-22.3,5.62C291.19,296.91,290.47,296.94,289.45,297.08Z" style="fill:#22386c"/><path d="M256.12,162.81c.55-8.66,1.11-17.32,1.63-26,.84-14,1.59-28,2.5-41.92.4-6.15,3.4-9.36,8.58-9.73,7.25-.51,12.3,2.53,13.48,8.57a96.46,96.46,0,0,1,1.24,11.54c1.06,15,2,30.08,3.08,45.11a38.51,38.51,0,0,0,10.66,24.27c7.36,7.93,14.06,16.49,20.87,24.91,2.52,3.11,3.64,6.81,1.32,10.59-2.19,3.55-5.24,6-9.7,5.63-3.25-.23-5.7-2.16-8.09-4.16q-13.29-11.12-26.61-22.22c-3.59-3-7.34-5.79-10.79-8.91C259.08,175.81,255.79,170.08,256.12,162.81Z" style="fill:#22386c"/><path d="M296.62,381l28.83-29.37c3.53-3.59,7.09-7.13,10.53-10.8a2.31,2.31,0,0,1,3.11-.59c12.39,5.31,24.81,10.54,37.22,15.8.59.25,1.18.48,1.88.76l31.7-40.25-23.44-7.78c0-.21-.07-.41-.1-.62,21.13-2.48,39.67-11.41,57.19-22.61-2.41,10.12-5,20.11-7.12,30.2s-1.8,20.63-.94,31l-.52.12-13.09-20.93-38.93,49.44-21-8.91c-6.4-2.71-12.82-5.38-19.19-8.18a2.31,2.31,0,0,0-3.11.59q-15.32,15.75-30.74,31.41a17.76,17.76,0,0,0-1.49,2Z" style="fill:#22386c"/></svg>