<svg id="b313e8f1-0a76-4c5e-a8dc-0e6d77e32aa1" data-name="Layer 1" xmlns="http://www.w3.org/2000/svg" viewBox="0 0 500 500"><title>ico</title><path d="M328.32,443a29.43,29.43,0,0,1-23.88-11.68c-2.38-3-4.73-3.85-8.33-3.83q-45.65.19-91.29,0c-4.55,0-7.39,1.28-10.4,4.85-8.81,10.43-22.8,13.38-35.16,8.22-11.88-5-19.84-17-19.45-29.42a31.45,31.45,0,0,1,21.88-28.94c1.17-.39,2.45-1.07,3.57-.9,8.83,1.38,12.59-4.15,16.53-10.77,13.53-22.69,27.5-45.12,41.46-67.55,2.18-3.5,2.64-6,.12-9.84-7.39-11.35-6.07-25.72,2.49-36a31.65,31.65,0,0,1,35.1-9.27c12.24,4.58,21.1,17,20,30.13-.48,5.75-3.67,11.26-5.34,17-.55,1.85-1,4.45-.11,5.88q23.27,38.44,47.06,76.55c1.09,1.74,4.23,2.94,6.5,3.09,16.78,1.13,28.8,12.25,30.82,28.92,1.7,14.12-8.77,28.68-23.59,32.58A60.56,60.56,0,0,1,328.32,443ZM306,388.08c-15.47-25.2-31.21-50.89-47-76.53-2.73-4.44-15.36-4.44-18.1,0Q217.93,348.69,195.2,386a5.88,5.88,0,0,0-.29,4.83c2.68,5.51,5.76,10.82,8.82,16.44H296.2C299.54,400.7,302.53,394.84,306,388.08Z" style="fill:#22386c"/><path d="M187.67,70.18c1-33,25.13-58.92,59.55-61.19,32.8-2.16,59,22.48,63,50.73,3.87,27.43-6.1,51.09-21.37,72.88a71,71,0,0,1-14.83,15c-15.12,11.63-32.64,11.67-47.88.32-18-13.42-27.49-32.52-33.62-53.43C190.15,86.63,189.23,78.31,187.67,70.18Z" style="fill:#22386c"/><path d="M489.11,333a105.76,105.76,0,0,1-32.27,67.33c-17.29,16.4-38.25,17-56.11,1.28-20.28-17.86-30.14-41.35-33.47-67.76a60.87,60.87,0,0,1,41.1-65.29C448.74,255.08,489.59,284.87,489.11,333Z" style="fill:#22386c"/><path d="M10.67,332.71c-.39-38.62,23.39-64.56,58-67.15,29.25-2.2,58.51,17.29,63.07,49.63,5.06,35.86-8.92,66.15-36.59,89.31-5.47,4.58-13.78,6.74-21.12,7.9C62.4,414.22,52.35,409,44,401.27A105.86,105.86,0,0,1,10.67,332.71Z" style="fill:#22386c"/><path d="M428.26,491.08q-29.08,0-58.15,0c-13.08,0-17-6.24-11.28-17.93,8.34-17,18.78-32.41,34-44.11,22.37-17.2,47.81-17.36,70.11-.24,16.6,12.75,27.83,29.64,36.11,48.59,3,6.9-1.42,13.17-9.53,13.57-6.86.34-13.75.12-20.63.12Z" style="fill:#22386c"/><path d="M72,491.05c-19.59,0-39.18.06-58.77,0C1,491-3,484.66,2.3,473.72c8.17-16.83,18.46-32.09,33.26-43.93,22.51-18,48.89-18.32,71.61-.64,16.17,12.59,27.18,29.13,35.4,47.62,3.48,7.85-1.21,14.1-10.58,14.23-13.55.18-27.1.06-40.64.07H72Z" style="fill:#22386c"/><path d="M250.13,234.51c-19.58,0-39.15,0-58.73,0-12.16,0-16.2-6.46-11-17.37,7.65-15.89,17.38-30.27,30.82-41.93,24.22-21,53.87-20.78,77.85.52,13.46,11.95,23.3,26.5,30.84,42.68,4.39,9.43.12,16-10.47,16.07C289.71,234.6,269.92,234.51,250.13,234.51Z" style="fill:#22386c"/></svg>