<svg id="7449b88a-a6ef-4190-a52c-33ef5272aaf2" data-name="Layer 1" xmlns="http://www.w3.org/2000/svg" viewBox="0 0 500 500"><title>ico</title><path d="M442.25,264.06c-15.69,0-30.31.06-44.92-.1a6.84,6.84,0,0,1-4.21-2.14q-32.07-33.19-64-66.52-37.81-39.36-75.61-78.74c-1.07-1.11-2-2.37-3.15-3.76-8.22,8.52-16,16.58-23.8,24.68l-86.45,90q-16.49,17.17-33,34.3c-1,1-2.45,2.21-3.71,2.22-14.86.16-29.73.1-45.61.1,5.7-6,10.72-11.36,15.81-16.66,11.3-11.74,22.73-23.37,33.86-35.27a11.3,11.3,0,0,0,2.55-7.06q.21-84.76.11-169.53C110.08,13.64,123.69,0,145.55,0q105,0,210,0c17.16,0,30.33,10.08,33.74,26a54.11,54.11,0,0,1,.84,11.32q.08,83.7,0,167.42a10.6,10.6,0,0,0,3.2,8.17c15.3,15.69,30.43,31.55,45.6,47.36C439.85,261.26,440.71,262.31,442.25,264.06ZM366.94,52.39H133.23v133L250.08,63.84,366.94,185.38ZM250,31.5h26.55c2.67,0,5.43.33,8-.25,1.4-.31,3.33-2.11,3.42-3.37S286.3,25,285,24c-.75-.58-2.16-.4-3.27-.4q-31.83,0-63.65,0c-3,0-6.12.37-6,4.15.07,3.55,3.12,3.73,5.94,3.72C228.67,31.48,239.34,31.5,250,31.5Z" style="fill:#22386c"/><path d="M132.91,256.1V439.27H366.83V254.05A19.59,19.59,0,0,1,369.6,256c6.25,6.47,12.52,12.91,18.61,19.53a7.72,7.72,0,0,1,1.88,4.77c.1,61.72.21,123.45,0,185.17-.08,21.45-14,34.56-35.58,34.56H145.32c-21.63,0-35.24-13.63-35.24-35.3q0-91.32-.08-182.63c0-3.56.94-6.15,3.56-8.47C120.18,267.74,126.68,261.75,132.91,256.1Zm117,195.11a16.09,16.09,0,1,0,.5,32.18,16.09,16.09,0,0,0-.5-32.18Z" style="fill:#22386c"/><path d="M246,264.72v55.21H190.6V264.72Z" style="fill:#22386c"/><path d="M254.29,320.09V264.73h55.35v55.36Z" style="fill:#22386c"/><path d="M245.87,382H190.56V326.64h55.31Z" style="fill:#22386c"/><path d="M309.69,382H254.4V326.66h55.29Z" style="fill:#22386c"/></svg>