<svg id="d1f887c3-6a2d-43c4-bc09-3403e1f54882" data-name="Layer 1" xmlns="http://www.w3.org/2000/svg" viewBox="0 0 500 500"><title>ico</title><path d="M500,364.63q0,55.35,0,110.69c0,11.08-5.18,16.38-16.06,16.39q-111,0-221.89,0c-11.94,0-17.06-5.14-17.06-17.07q0-110.68,0-221.37c0-11.05,5.54-16.54,16.69-16.54q110.43,0,220.87,0c12.34,0,17.43,5,17.44,17.23Q500,309.29,500,364.63Zm-28.64,98.76v-198H273.73v198Z" style="fill:#22386c"/><path d="M250.62,8.28c75.86,3.36,144.55,41.08,191.79,116.34,4.85,7.73,3,16.22-4,20.53s-15.33,1.92-20.06-5.85c-26.43-43.47-63.53-74-111.46-90.93C189.61,6.83,60.64,78.33,33.63,199.71,13.09,292.06,54.85,384.43,137.88,430.26c7.69,4.24,11,9.7,9.73,16.16-1.91,9.89-12,14.53-21.35,9.61a229.53,229.53,0,0,1-53.45-38.82C31.05,376.43,7.37,326.86,1.23,268.9c-10-94,41.29-188.91,125.4-232.85C161.64,17.76,198.79,8.48,250.62,8.28Z" style="fill:#22386c"/><path d="M65.25,228.64c1-73,55.17-138.89,128.13-155.18,11-2.47,22.49-3.28,33.81-4.09,9.92-.72,16.49,5.21,16.64,13.74s-6.24,14-16.18,14.51c-57.29,2.63-98.18,30.11-122.75,81.74-7.37,15.5-10.81,32.13-11.3,49.32a50.83,50.83,0,0,1-.55,7.62,14,14,0,0,1-27.79-2.05C65.18,232.38,65.25,230.51,65.25,228.64Z" style="fill:#22386c"/><path d="M114,228.78c1.89-55.33,45.62-103.22,100.37-109.73,4.55-.54,9.14-.88,13.71-1,9.28-.22,15.58,5.31,15.77,13.57s-5.57,13.32-14.5,14.56c-10.52,1.47-21.6,2.23-31.25,6.2-35.49,14.6-53.92,41.92-56,80.21-.51,9.29-5.59,15-13.7,15.21A13.77,13.77,0,0,1,114,234.38C113.9,232.52,114,230.65,114,228.78Z" style="fill:#22386c"/><path d="M242.35,182.32c7,1.7,14.23,2.91,21.06,5.22,8.33,2.82,11.8,10.72,8.93,18.34s-10.63,10.8-18.87,8c-20.64-7.11-40,4.91-41.77,26.08-.8,9.75,3,17.8,9.94,24.64A14,14,0,0,1,224.35,281c-2.72,5.3-8.49,8.78-14.34,7.36a22.14,22.14,0,0,1-9.87-5.63A58.29,58.29,0,0,1,188,219.05C197.23,197.28,218.37,183.35,242.35,182.32Z" style="fill:#22386c"/><path d="M377.62,371c-35,.16-64.35-28.26-65.27-63.14-.24-9,5.37-15.67,13.5-16.09s14.39,5.9,14.83,14.82c1,21,16.7,36.15,37.21,36.06,19.62-.08,35.47-15.83,36.28-36,.35-8.69,6.35-15,14.22-14.84,8.23.12,14.18,6.74,14,15.6C441.69,342.34,412.69,370.83,377.62,371Z" style="fill:#22386c"/></svg>