<svg id="cfa8e8e8-05b0-4a96-8c2c-dd5bcec472e1" data-name="Layer 1" xmlns="http://www.w3.org/2000/svg" viewBox="0 0 500 500"><title>ico</title><path d="M250,0C388,0,500,112,500,250S387.71,500.2,249.87,500,0,388.26,0,249.82C0,111.78,112,0,250,0Zm0,8.84C116.88,8.84,8.89,116.64,8.8,249.59,8.7,382.94,116.56,491.15,249.64,491.21c133.35.06,241.49-107.82,241.53-240.94C491.22,116.77,383.39,8.84,250,8.84Z" style="fill:#22386c"/><path d="M360.27,363.65c1-4.27,2-8.33,3.05-12.73H256c-3.6-.07-5.2-1.26-6.31-4.75q-2.81-8.81-5.58-17.63c-.28-.89-.59-1.77-.92-2.74H192.91c0,4.53,0,9,0,13.75,1,0,1.82.11,2.65.11h26.72a22.85,22.85,0,0,1,2.34.06,5.48,5.48,0,0,1-.4,10.95c-.47,0-.94,0-1.41,0H160.24c-.63,0-1.26,0-1.88,0a5.48,5.48,0,0,1-.3-10.9,18.24,18.24,0,0,1,2.34-.1h21.21v-14h-3q-47.7,0-95.4,0A22.34,22.34,0,0,1,60.58,302.9c0-9.84,0-19.68,0-29.53q0-63.87,0-127.73a22.79,22.79,0,0,1,4.26-14.09c4.45-5.94,10.41-9.17,17.85-9.17q104.65-.06,209.3,0a22.07,22.07,0,0,1,22,22.13q0,53.43,0,106.87v3.13h72.48c1.14-4.73,2.29-9.41,3.41-14.1q3.6-15,7.2-30.05c1-4,2.69-5.32,6.79-5.32q14.53,0,29.06,0a11.35,11.35,0,0,1,2.33.21,5.43,5.43,0,0,1,4.31,5.62,5.52,5.52,0,0,1-5.08,5.23c-.62,0-1.24,0-1.87,0H407.13q-18,75.09-36.06,150.08a20,20,0,0,1,9.4,13.27,19.18,19.18,0,0,1-2.2,13.58,19.63,19.63,0,0,1-23.61,8.9,19.18,19.18,0,0,1-11.74-11.06c-2.24-5.31-1.86-10.64.26-16.1H283.37c.27.87.5,1.65.74,2.42a19.73,19.73,0,1,1-20.51-13.49c1.87-.14,3.75-.06,5.62-.06h91ZM303,254.64v-3.21q0-52.62,0-105.23a22.17,22.17,0,0,0-.07-2.58,10.71,10.71,0,0,0-7.74-9.6,16,16,0,0,0-4.85-.53q-103,0-206,0H82.4a10.57,10.57,0,0,0-7.51,3.33,11.82,11.82,0,0,0-3.26,8.74q0,45,0,90v34.69c0,.82.07,1.64.11,2.43H226.42c-.38-1.22-.68-2.25-1-3.28-.77-2.45-1.64-4.89-2.31-7.37-1-3.83,1.14-6.9,5.07-7.32a24.63,24.63,0,0,1,2.58-.06H303Zm-67,11.21c7.83,24.84,15.56,49.37,23.28,73.84H366c5.92-24.64,11.81-49.17,17.74-73.84ZM72,284a2.89,2.89,0,0,0-.27.67c0,6.48-.09,13,0,19.44a10,10,0,0,0,2.72,6.58,11.57,11.57,0,0,0,9.15,3.89q76.73,0,153.44,0h2.64c-3.26-10.35-6.43-20.43-9.63-30.56Zm297.79,99.37a8.65,8.65,0,0,0-17.3-.1,8.65,8.65,0,0,0,17.3.1Zm-104.32,8.57a8.62,8.62,0,1,0-.39-17.24,8.62,8.62,0,0,0,.39,17.24Z" style="fill:#22386c"/><path d="M187.55,289.56a9.69,9.69,0,1,1-.6,19.37,9.69,9.69,0,0,1,.6-19.37Z" style="fill:#22386c"/></svg>