<svg id="a48647bf-391b-4e2a-b06a-db6b50c75431" data-name="Layer 1" xmlns="http://www.w3.org/2000/svg" viewBox="0 0 500 500"><title>ico</title><path d="M239.26,0h31.25a20.67,20.67,0,0,0,3.24.79c42,3.18,80.87,16.08,115.86,39.5C447.4,79,483.28,132.52,496.15,201.09c1.7,9.06,2.59,18.28,3.85,27.43v30.27a35.23,35.23,0,0,0-.84,4.26,235,235,0,0,1-29.22,97.24A246.45,246.45,0,0,1,139.66,459a11,11,0,0,0-7.63-.76q-49.52,15.42-98.9,31.29C22.69,492.82,12.34,496.48,2,500L0,499c.51-1.18,1.12-2.33,1.53-3.55Q22.34,434.11,43,372.69a9.8,9.8,0,0,0-1-7.07c-20.8-36.09-32-74.92-32.8-116.53C8.06,193.91,23.71,143.73,56.76,99.53,94.52,49,144.58,17.3,206.54,4.85,217.33,2.68,228.35,1.59,239.26,0ZM61.74,439.65c25.69-8.15,50.3-15.91,74.86-23.83a8.82,8.82,0,0,1,8.17.9c48.11,29.55,99.93,38.6,155,26.52,109.35-24,179.4-131.66,157-240.64C439.66,119.11,370.32,53.26,285.88,41.21,225.65,32.62,171.06,47,123.77,85.49c-44.08,35.87-69.23,82.7-74.62,139.34C44.46,274.1,56.8,319.3,85,360c1.74,2.51,2.23,4.6,1.14,7.58-3.39,9.31-6.43,18.75-9.6,28.13C71.75,410,66.93,424.31,61.74,439.65Z" style="fill:#22386c"/><path d="M179.72,133c10.86-3.09,15.19,4.2,18.79,13.34,5.41,13.74,11.31,27.3,17.13,40.89,1.79,4.2,2.13,8.32-.54,12.06-4.61,6.46-9.35,12.84-14.4,19-4.41,5.35-4.92,7.61-1.42,13.45,19.58,32.62,46.89,56.17,82.38,70.1,5.6,2.2,8.43,1.6,12.44-3.19q8.92-10.67,17.56-21.55c4.41-5.57,6.68-6.89,12.89-4.08,17,7.7,33.85,15.77,50.58,24.07,1.95,1,3.84,4.28,3.89,6.54.38,16.94-4.12,31.65-19.29,41.68-17.6,11.63-36.18,16.36-56.9,10.23-30.51-9-60.2-19.74-85.43-40.11-22-17.72-40.37-38.56-56.49-61.65-10-14.34-19.3-29-23.58-46.15q-9.92-39.83,19.44-68.66C163.06,132.76,170.67,131.65,179.72,133Z" style="fill:#22386c"/></svg>