<svg id="d8edb011-a627-45d3-a2da-ed8db0911ab3" data-name="Layer 1" xmlns="http://www.w3.org/2000/svg" viewBox="0 0 500 500"><title>ico</title><path d="M257.85,417.28V302.76a54.73,54.73,0,0,1-26-11.28L124.42,398.89c4.67,10.86,4.82,22.06-.45,33.12a37.73,37.73,0,0,1-18.84,18.49,39,39,0,1,1,9.4-64.92l106.1-106.11a55.17,55.17,0,0,1-8.18-18.91H144.72c-2.35,6.93-6.75,12-13.54,14.87a22.71,22.71,0,0,1-15.46.84,23.39,23.39,0,1,1,29-29.13h66.43a55.16,55.16,0,0,1,10.84-31l-76.26-76.26c-9.13,5.3-18.76,6.54-28.81,3.26A33,33,0,0,1,98.7,128.63a34.12,34.12,0,1,1,58.34-.2l76.34,76.34c.12-.08.54-.34.94-.62a53.62,53.62,0,0,1,25.05-9.54c1.46-.17,1.46-.18,1.91-1.79q9.54-34.77,19.09-69.56l13.14-47.92c.17-.64.34-1.27.53-2-10.33-5.93-17-14.6-19.58-26.24a37.82,37.82,0,0,1,3.63-26.3,39,39,0,0,1,73.13,22.89,37.88,37.88,0,0,1-14.14,25.53c-8.13,6.58-17.51,9.31-28,8.59Q292.92,136.55,276.8,195.3a55,55,0,0,1,35.61,25.19l54.46-22.62C365.61,185,369,173.7,377.72,164.2a40.44,40.44,0,0,1,25.34-13,41.69,41.69,0,0,1,24.27,78.47,40.38,40.38,0,0,1-32.1,2.49c-10.93-3.61-19-10.75-24.33-21.05L318,233q6.23,22.4-4.67,42.44L381,343.11a23.45,23.45,0,0,1,20.12.31A22.86,22.86,0,0,1,411.75,354a23.41,23.41,0,0,1-33.59,30.11c-7.46-4.71-14.35-16-8.69-29.6l-66.19-66.19a54.76,54.76,0,0,1-29.66,14.42V417.23c13.32,3,23.4,10.41,29.56,22.74a40.42,40.42,0,0,1,3.07,28.18,41.7,41.7,0,0,1-81.7-3.24,40.88,40.88,0,0,1,2.06-21.12,41.43,41.43,0,0,1,12.07-17.26A42.13,42.13,0,0,1,257.85,417.28Zm44.07,41a36.2,36.2,0,1,0-36.28,36.15A36.28,36.28,0,0,0,301.92,458.32ZM408.24,228.68a36.16,36.16,0,1,0-36.08-36.27A36.16,36.16,0,0,0,408.24,228.68ZM156.31,110.86a28.56,28.56,0,1,0-28.62,28.52A28.58,28.58,0,0,0,156.31,110.86Z" style="fill:#22386c"/></svg>