<svg id="0ea09e24-b38f-4c00-a07a-76305b5b4dc7" data-name="Layer 1" xmlns="http://www.w3.org/2000/svg" viewBox="0 0 500 500"><title>ico</title><path d="M447.75,267.17h33.42v67.32H500V462.37H0V334.6H33.08c0-.87.11-1.56.11-2.24q0-62,0-124a3.43,3.43,0,0,1,1.65-3.22q51.06-35.74,102.08-71.58c.41-.28.84-.54,1.51-1v65.76l93.79-65.81v65.82l93.91-65.87V267.1h24.28Q359.19,152.41,368,37.63h64.31Q440,152.28,447.75,267.17Zm-355.1,152H288.78v27.94h6.65v3.83H488.52v-105H469.7V278.51H314.56v-124l-93.82,65.82V154.55l-93.89,65.87V154.67c-.57.37-.95.6-1.31.86q-39.89,28-79.78,55.93a2.5,2.5,0,0,0-1.16,2.37q0,65,0,130v2.12H11.48v105H86V447h6.7ZM436.23,266.28q-7.31-108.66-14.6-217.18h-43q-8.34,108.65-16.68,217.18Z" style="fill:#22386c"/><path d="M232.13,312.5c-3.13.62-6.27.82-8.69-1.51-2.09-2-4.12-1.85-6.7-1.2a272.12,272.12,0,0,1-44.8,7.58c-8.08.65-16.21.63-24.32.91-.35,0-.7,0-1.57.1.79.49,1.21.77,1.64,1a54.71,54.71,0,0,0,20.69,6.24c13,1.42,25.86.45,38.28-3.9,3.19-1.12,6.14-2.88,9.25-4.22,2.67-1.15,5.41-2.14,8.13-3.19l.24.44.25-1.31h5.9l.43,1.37h32c4.19,0,5.75,1.57,5.75,5.81v7.12h8.2V305.56h6.16v60.25a23,23,0,0,0,12.38.59,37.55,37.55,0,0,1,4.35-.71,6.81,6.81,0,0,1,2.11.13c2.15.43,3.33,2.85,3.09,6.21-.19,2.84-1.58,4.69-3.85,4.58a68.58,68.58,0,0,1-7.66-1,23.07,23.07,0,0,0-9.64.72,1.36,1.36,0,0,0-.73.88,6.38,6.38,0,0,0,0,1.59h-6.14V357.69h-8.24v55.36H209.52c.2-2.2.39-4.35.61-6.49,1.14-11.31,2.34-22.61,3.42-33.92a9.2,9.2,0,0,0-3.22-8.17,41.2,41.2,0,0,0-19.09-9.25c-7.91-1.64-15.87-2.32-23.82-.2-8.81,2.34-16.34,7.06-23.17,13a9.34,9.34,0,0,0-3.07,6.91c-.06,1.22,0,2.44,0,3.66,0,3-1.8,4.82-4.85,4.83q-10.82,0-21.63,0c-3.18,0-4.89-1.73-4.9-4.91q0-14.77,0-29.55v-2.1c-1,0-2,0-2.88,0a2.16,2.16,0,0,1-2.38-2.37q-.08-4.95,0-9.9c0-1.66.82-2.39,2.46-2.44.85,0,1.71,0,2.73,0,0-.64.08-1.17.08-1.71,0-3.55,0-7.11,0-10.66,0-3.07,1.74-4.79,4.82-4.79q11,0,21.94,0a6.6,6.6,0,0,1,2.4.27c3.27,1.31,6.68,1.09,10.07,1.13,23.65.25,46.78-3.46,69.61-9.37a4.12,4.12,0,0,1,3.67.74,93.28,93.28,0,0,0,8.31,4.31A9.63,9.63,0,0,0,232.13,312.5Zm7.54,63.86a23,23,0,0,0,.09-45.9c-12.4,0-22.89,10.14-23,22.3C216.69,365.94,226.73,376.3,239.67,376.36Z" style="fill:#22386c"/><path d="M234.31,298.35a22.86,22.86,0,0,1-13.17-9.06c.93-1.45,1.5-1.54,2.52-.37a21.57,21.57,0,0,0,9.21,6.49C234.51,296,234.68,296.85,234.31,298.35Z" style="fill:#22386c"/><path d="M221,302.89a26.55,26.55,0,0,0,13.44,6.2,5.46,5.46,0,0,1-.2,1.76,1.47,1.47,0,0,1-1.15.72,22.73,22.73,0,0,1-11.61-5.85c-.61-.59-.71-1.7-1-2.57Z" style="fill:#22386c"/><path d="M234.39,301.6a22.55,22.55,0,0,1-13.16-8,4.83,4.83,0,0,1-.51-2.74,26.69,26.69,0,0,0,13.67,8.61Z" style="fill:#22386c"/><path d="M234.37,305.9V308a23.64,23.64,0,0,1-12.81-6,4.84,4.84,0,0,1-.93-2.87A29.39,29.39,0,0,0,234.37,305.9Z" style="fill:#22386c"/><path d="M220.88,294.86a25.29,25.29,0,0,0,13.48,7.81v2.16c-1-.24-1.85-.44-2.74-.7a23.71,23.71,0,0,1-9.62-5.56A3.27,3.27,0,0,1,220.88,294.86Z" style="fill:#22386c"/><path d="M224.5,288.21c1.76-.25,3.13-.18,4.44,1.1a19.52,19.52,0,0,0,4.3,3.06,1.85,1.85,0,0,1,1.13,2.4C231.4,294.24,226.59,291.09,224.5,288.21Z" style="fill:#22386c"/><path d="M228.19,285.89l2.34.15.13,1.55h-6.18v-1.54l2.41-.16v-5.4a5.59,5.59,0,0,1,0-1.36c.08-.33.4-.59.61-.88.19.3.54.59.55.9,0,1.77,0,3.55,0,5.33C228.11,284.92,228.16,285.36,228.19,285.89Z" style="fill:#22386c"/><path d="M229.26,288.54c4.22-.8,5.21-.12,5.11,3.46Z" style="fill:#22386c"/><path d="M220.84,310.45l3.29,2.29C222.12,312.93,221.15,312.24,220.84,310.45Z" style="fill:#22386c"/></svg>