<svg id="7b9ad70f-f61d-4533-a7a9-18846c98a3c5" data-name="Layer 1" xmlns="http://www.w3.org/2000/svg" viewBox="0 0 500 500"><title>ico</title><path d="M352.43,87.52H307.18V46.36H87.12V453.71h219.8V332.38h45.4a37.69,37.69,0,0,1,.5,4.41c0,41.47.17,82.94-.08,124.41-.12,20.26-12.37,34.95-31.08,38.23a52.45,52.45,0,0,1-9.13.55q-115.53,0-231,0C57,500,41,484.22,40.93,459.54q-.15-75.39-.06-150.79,0-133.86,0-267.73c0-15.34,4.89-28,18.66-35.48C65,2.54,71.71.3,77.88.27Q197.13-.24,316.38.11c19.34,0,35,14.58,36,33.81.86,16.78.35,33.62.43,50.44A31.08,31.08,0,0,1,352.43,87.52Z" style="fill:#22386c"/><path d="M175.49,278.18,282.4,171.27l49,49.41,48.24-48.37H343.27V126.73h115.9V242.66H413.93V206.21l-80.05,80.06L283.4,235.46l-75.19,75.21Z" style="fill:#22386c"/><path d="M196.88,376a28.62,28.62,0,0,1,28.67,28.22,28.6,28.6,0,1,1-57.19.67A28.49,28.49,0,0,1,196.88,376Z" style="fill:#22386c"/></svg>