<svg id="ce11aee3-7416-4f15-bd96-71f2805d2291" data-name="Layer 1" xmlns="http://www.w3.org/2000/svg" viewBox="0 0 500 500"><title>ico</title><path d="M316.18,389.53c-1.18-1.23-2.11-2.33-3.18-3.27a34.13,34.13,0,0,0-22.27-8.64c-4.43-.1-8.87,0-13.3,0-.8,0-1.59.08-2.73.14V492.3c0,.81,0,1.63,0,2.44a5.58,5.58,0,0,1-11,1,19.44,19.44,0,0,1-.3-4q0-55.08,0-110.17v-3.72H252.45V492c0,1,.05,2,0,3a5.6,5.6,0,0,1-10.92,1,14.69,14.69,0,0,1-.35-3.75q0-55.36,0-110.72v-3.78l-18.71-.63V492.28a18.36,18.36,0,0,1-.1,3,5.55,5.55,0,0,1-6,4.74,5.49,5.49,0,0,1-5.22-5.26c-.08-1,0-2,0-3V375.23L206.54,374c-11.08-3.13-21-8.32-29-16.68-9.23-9.57-14.26-21.18-16.31-34.2-.24-1.52-.43-3-.69-4.85-14.74-2.21-26.51-9.35-34.57-22.12a45.78,45.78,0,0,1-7-28.49c1.52-20.4,16.77-39.73,41.3-43.34V172H60.38v27.87c-2.14-1.15-27.73-26.37-34.1-33.5.95-1.69,30.91-31.85,34.05-34.18v28.15h99.88v-36H132.4l33.75-33.62,33.36,33.47c-2.06,0-4.33.07-6.61.08h-21v36c.73.07,1.5.2,2.28.2,10.76,0,21.52,0,32.29,0,2.79,0,5.6-.46,8.38-.34,14.42.63,25.09,7.27,31.69,20.19A52.44,52.44,0,0,1,251.78,199c.43,4.22.62,8.48.64,12.72.08,12.66,0,25.33,0,38v3.11h10.76V165.91c-15-2.07-27.13-8.89-36.17-20.91a50.94,50.94,0,0,1-10.37-31.65,52.77,52.77,0,0,1,46.52-51.92V33.9H235.41c1.14-2.06,29-30.27,33.33-33.9l33.74,33.74c-9,.3-18.25-.1-27.62.21V61.5c16.61,2.32,29.8,10.35,38.84,24.67,6.24,9.89,8.5,20.78,7.63,32.42-1.44,19.22-16.67,43.47-46.43,47.48v86.78h65.94V225.3l33.45,33.45-33.36,33.36V264.56h-66V366.08c.74.06,1.43.18,2.12.19,4.44,0,8.87-.09,13.3,0,15.12.39,27.46,6.29,36.51,18.61l.94,1.27a120.74,120.74,0,0,1,21.78-1c7.3.34,14.63.08,22.2.08,1.27-17.54,8.76-31.47,23.44-41.11A49.45,49.45,0,0,1,428,336.27a50.79,50.79,0,0,1,45.66,48.84c.91,24.94-16.56,47.05-40.75,51.71-13.77,2.65-26.66.24-38.36-7.55s-18.78-18.79-21.87-32.68H370c-5.25,0-10.49.1-15.74.06-4.07,0-8.13-.33-12.2-.31-3,0-5.92.33-9,.52.14.88.17,1.5.33,2.09a64.14,64.14,0,0,1,2.15,17.16q0,38.26-.05,76.52c0,.64,0,1.27,0,1.9a5.5,5.5,0,0,1-5.3,5.46,5.59,5.59,0,0,1-6-5.07,22.25,22.25,0,0,1-.05-2.71q0-38,.05-76a51.76,51.76,0,0,0-1.66-14c-.22-.76-.5-1.51-.83-2.51-6.08,2.42-10.87,6-14,11.66a26.67,26.67,0,0,0-3.21,13q.06,34.46.07,68.92a12.68,12.68,0,0,1,0,1.63,5.52,5.52,0,0,1-5.2,5,5.44,5.44,0,0,1-5.85-4.2,13.82,13.82,0,0,1-.24-3.22c0-21.45,0-42.89,0-64.34,0-4.72,0-9.4,1.25-14a35.68,35.68,0,0,1,18.49-23ZM171.65,171.8c.09,17.77-.17,35.15.19,52.3,26.22,5.81,40,21.86,41.68,48.83,4.9-13.19,14-19.83,27.49-20.24.05-1,.11-1.69.11-2.4,0-13.65.11-27.3-.05-40.94a88,88,0,0,0-1.29-13.46c-1-6.13-3.26-11.86-7.53-16.56-5.73-6.31-13.09-8.29-21.34-7.82-2.8.16-5.6.27-8.39.28-9.22,0-18.44,0-27.66,0ZM241,264.21c-5.25-.08-9.53,1.56-12.88,5.42a20.48,20.48,0,0,0-4,7.65,44.75,44.75,0,0,0-1.7,13.12q0,36.33,0,72.67c0,.78.12,1.56.19,2.47a111.44,111.44,0,0,0,18.34.59Zm-69,54c1.33,11.6,5.11,21.93,13,30.48,7,7.59,15.81,12.07,25.95,14.68V286.78C203.76,304.29,191,314.8,172,318.2Zm92.13-227c-1.78-.34-3.27-.74-4.79-.89-7.17-.71-11.86,3.54-11.95,10.66,0,1.22-.54,2.43-.6,3.66-.1,2.13-.5,4.42.13,6.35.79,2.43,2.45,4.58,3.81,6.8a3.93,3.93,0,0,1-1,5.43c-1.73,1.16-3.51,2.22-5.27,3.33-4.47,2.8-5.65,5.58-4.6,11.1h58.63c1.25-6.29-.43-9.84-5.85-12.57-2.34-1.18-4.69-2.33-7-3.52-2.56-1.31-3.73-4.26-2.13-6.53,1.72-2.42,2.29-5.53,4.67-7.54a2.57,2.57,0,0,0,.7-1.7c.08-1.8.44-3.75-.09-5.38-.83-2.51-.71-5-.71-7.48,0-4.42-2.33-7.64-6.64-8.78a23.45,23.45,0,0,0-6.42-.67C269.67,83.59,265.58,85.54,264.1,91.24Zm-70.73,180A27.45,27.45,0,1,0,166,298.69,27.4,27.4,0,0,0,193.37,271.2Zm69.84,94.92V264.58H252.66V366.12Zm159.48,35.25c6.42,0,12.84,0,19.26,0,5.13,0,7.31-2.23,7.32-7.27q0-12.07,0-24.14c0-4.78-2.22-7-7-7-13,0-26.05.1-39.07-.06-4.54-.06-7.07,3.16-6.93,6.84.15,3.88,0,7.78,0,11.66q0,6.8,0,13.57c0,2.69,1.13,4.8,3.64,5.82a11,11,0,0,0,4,.56C410.21,401.4,416.45,401.37,422.69,401.37Zm-35.79,2.47c0,.92-.1,1.55-.1,2.18,0,2.71.72,3.73,3.31,4.51a10.79,10.79,0,0,0,2.66.36c1.63.06,3.25,0,4.88,0,18.06,0,36.13,0,54.19,0a16.73,16.73,0,0,0,5-.93,2.76,2.76,0,0,0,1.93-2.95c0-1-.07-2.08-.1-3.15Z" style="fill:#22386c"/><path d="M264.13,94.22a18.71,18.71,0,0,1-.53,5.51c-.75,2.71-1,5.59.69,8.33a53,53,0,0,1,3.62,7.23c1.08,2.52,0,5-2.46,6.33-2.14,1.16-4.24,2.4-6.42,3.48-3.75,1.87-5.81,4.76-5.75,9a13.54,13.54,0,0,1-.16,1.45H241.68a5.88,5.88,0,0,1,2.75-6.58c2.13-1.37,4.3-2.66,6.42-4,3-2,3.41-5.77,1.3-8.68-1.94-2.67-3.78-5.47-3.67-9,0-.45-.11-1,.1-1.34,1.1-1.73.78-3.65.8-5.52a7.55,7.55,0,0,1,2.79-6.19C255.28,91.73,260.56,91.72,264.13,94.22Z" style="fill:#22386c"/><path d="M177.93,280.15h-10v-6.81h10.76C178.42,275.56,178.19,277.73,177.93,280.15Z" style="fill:#22386c"/><path d="M164,273.28v6.85h-9.81c-.29-2.15-.6-4.4-.93-6.85Z" style="fill:#22386c"/><path d="M178.75,269.28H168v-7a89,89,0,0,1,9.83-.07C178.15,264.61,178.43,266.79,178.75,269.28Z" style="fill:#22386c"/><path d="M153.26,269.16c.27-2.32.54-4.51.81-6.83h9.77v6.83Z" style="fill:#22386c"/><path d="M176.68,284.21c-1.81,4.58-3.88,8.39-8.38,10.43a31.1,31.1,0,0,1-.17-10.43Z" style="fill:#22386c"/><path d="M176.25,258.24h-8.32v-10C171.62,248.91,175.42,253.48,176.25,258.24Z" style="fill:#22386c"/><path d="M155.62,284.15h8.25c.39,3.45.1,6.8.18,10.22C160.12,293.35,156.7,289.19,155.62,284.15Z" style="fill:#22386c"/><path d="M155.63,258.24c1.19-5,4.58-9.12,8.43-10.05v10.05Z" style="fill:#22386c"/><path d="M142.21,273.26h7.2c.28,2.25.55,4.44.84,6.86h-6.43C143.31,277.93,142.79,275.71,142.21,273.26Z" style="fill:#22386c"/><path d="M189.29,273.31a4.5,4.5,0,0,1,.15.76c-.32,5.95-1.46,6.88-7.68,6,.25-2.18.49-4.38.76-6.76Z" style="fill:#22386c"/><path d="M143.82,262.34h6.44c-.29,2.38-.55,4.58-.82,6.9h-7.2Z" style="fill:#22386c"/><path d="M182.53,269.15l-.82-6.75h6.09a14.28,14.28,0,0,1,1.66,6.75Z" style="fill:#22386c"/><path d="M180.7,284.14c.9,0,1.69-.1,2.48-.1s1.4.06,2.61.12a19.08,19.08,0,0,1-8.57,7.54c.59-1.19,1.22-2.38,1.78-3.59S180.12,285.5,180.7,284.14Z" style="fill:#22386c"/><path d="M151.13,284c1.26,2.71,2.4,5.15,3.54,7.58-2.77-.69-6.38-3.88-8.19-7.38.87-.07,1.63-.16,2.39-.19S150.3,284,151.13,284Z" style="fill:#22386c"/><path d="M151.3,258.31h-4.57c.82-2.63,3.87-5.62,8.1-7.75-.77,1.6-1.37,2.79-1.92,4S151.86,257,151.3,258.31Z" style="fill:#22386c"/><path d="M177.27,250.92a18.13,18.13,0,0,1,8.38,7.31h-5Z" style="fill:#22386c"/><path d="M422.64,396.48q-9.22,0-18.45,0c-2.81,0-2.95-.14-2.95-2.88q0-11.52,0-23.06c0-2.6.18-2.81,2.75-2.81q18.86,0,37.71,0c2.44,0,2.68.25,2.68,2.61q0,11.81,0,23.6c0,2.25-.25,2.52-2.48,2.53C435.48,396.5,429.06,396.48,422.64,396.48Z" style="fill:#22386c"/><path d="M419.67,406.52a17.37,17.37,0,0,1,6.88-.21A8,8,0,0,1,419.67,406.52Z" style="fill:#22386c"/></svg>