<svg id="647028b2-87f6-4f34-99ec-105a74962a13" data-name="Layer 1" xmlns="http://www.w3.org/2000/svg" viewBox="0 0 500 500"><title>ico</title><path d="M204.15,98.25l64.54,71.95,18.4-16.4c5.12,24.35,10.12,48.15,15.26,72.59l-70.36-23c3-3.14,6.07-5.61,9-8.24s5.91-5.33,9.22-8.31l-47.88-53.41c-.94.78-1.71,1.36-2.42,2q-32.19,29.48-64.41,58.91a6.29,6.29,0,0,0-2.21,5.16q.06,118.49,0,237c0,1.08.1,2.15.17,3.4H366.32V266.64l-70.51,63.71c-21.6-24.07-43-47.93-64.6-72l-18.34,16.39c-5.25-24.3-10.13-48.11-15.32-72.57l70.54,23.07-18.36,16.49,48,53.53L389,211c.1,4,.25,7.21.25,10.38q0,107.7,0,215.4c0,10,0,19.92,0,29.87,0,10.44-3.84,19.2-11.93,25.92A31.35,31.35,0,0,1,357.51,500h-1.66Q250,500,144.1,500c-8.31,0-15.71-2.38-22-7.81a31.54,31.54,0,0,1-11.38-24.81q0-110.52,0-221,0-30,0-60.07a5.93,5.93,0,0,1,2-4.93q45-40.82,89.85-81.74C203,99.23,203.39,98.89,204.15,98.25Zm61.9,369.52a16.11,16.11,0,1,0-32.22-.39,16.11,16.11,0,1,0,32.22.39Z" style="fill:#22386c"/><path d="M110.72,162.24v-4.17q0-62.55,0-125.11c0-16.54,11.11-29.76,27.39-32.57A31,31,0,0,1,143.39,0Q249.92,0,356.44,0a32.19,32.19,0,0,1,32,25.63,38,38,0,0,1,.79,7.9q.06,77.66.07,155.31a5.83,5.83,0,0,1-2.06,4.9c-6.23,5.47-12.33,11.09-18.49,16.65-.48.44-1,.84-1.44,1.21a3.53,3.53,0,0,1-.41-.22.56.56,0,0,1-.21-.25c-.05-.21-.08-.43-.11-.65s0-.22,0-.33v-1.66q0-77.16,0-154.31v-.66c0-.12,0-.23,0-.34s0-.44-.06-.66a1.21,1.21,0,0,0-.09-.31c0-.1-.1-.2-.15-.3-2.29-.69-227.08-1-232.8-.24-.05,1.19-.15,2.47-.15,3.74,0,27.55,0,55.09.06,82.63a7.66,7.66,0,0,1-2.85,6.55c-5.7,4.9-11.18,10.07-16.75,15.12C113,160.44,112.12,161.08,110.72,162.24Zm139.13-131q15.9,0,31.82,0a18.36,18.36,0,0,0,3-.1,3.86,3.86,0,0,0,.07-7.62,13.67,13.67,0,0,0-2.64-.13H217.76a16.53,16.53,0,0,0-2,0A3.94,3.94,0,0,0,212,27.26a3.85,3.85,0,0,0,3.73,3.9,23.36,23.36,0,0,0,2.65,0Z" style="fill:#22386c"/><path d="M193.38,394.48c-27.87.35-51.33-23-51.09-51.28a51.21,51.21,0,0,1,51.15-51c28.14,0,51.26,22.91,51.15,51.06C244.46,374.25,219,395,193.38,394.48Zm38.29-50.92A38.27,38.27,0,1,0,193,381.7,38.34,38.34,0,0,0,231.67,343.56Z" style="fill:#22386c"/><path d="M225.55,393.52a64,64,0,0,0,18-17.93c.71.62,1.22,1,1.68,1.47q14.55,14.54,29.08,29.07c3.75,3.74,5.27,8.13,3.77,13.3a12.72,12.72,0,0,1-19.79,6.74,16.4,16.4,0,0,1-2-1.74Q241.62,409.79,227,395.12C226.59,394.74,226.25,394.31,225.55,393.52Z" style="fill:#22386c"/><path d="M171.93,343.25h-7.8c-3-13.66,14.32-31.14,29.2-29.41v8C180.78,323.32,173.45,330.24,171.93,343.25Z" style="fill:#22386c"/></svg>