<svg id="be862761-1448-4541-a4e7-71190ecff370" data-name="Layer 1" xmlns="http://www.w3.org/2000/svg" viewBox="0 0 500 500"><title>ico</title><path d="M0,207v-5.86c.65-2,1.44-3.89,1.93-5.9Q22,112.28,42,29.32c1.46-6,3.8-7.95,9.85-7.95q198.3,0,396.6,0c6.07,0,8.43,1.91,9.88,7.91q20.57,85.34,41.1,170.67c2.05,8.55-.91,12.2-9.81,12.24-7.12,0-14.25,0-22,0V219q0,123.57,0,247.14c0,10.59-1.94,12.52-12.53,12.52H45.22a44.26,44.26,0,0,1-4.89-.06c-4.22-.48-6.87-2.8-7.41-7.11a47.52,47.52,0,0,1-.19-5.85q0-123.07,0-246.16V212.2c-7.65,0-14.62-.19-21.57.07C6.36,212.45,2.58,211.16,0,207Zm242.05,5.52H75.63v204.9h63.76V393.6h-27c-10.89,0-13.64-3.86-10.3-14.39q12.14-38.34,24.27-76.67c4.22-13.22,2.28-25.32-6-36.44-5.64-7.56-11.18-15.21-16.85-22.75-2.37-3.16-4.06-6.35-2.1-10.31s5.48-4.56,9.46-4.55q36.87.09,73.74,0c4,0,7.56.69,9.41,4.64,1.72,3.67.4,6.89-1.91,10-5.49,7.27-10.72,14.74-16.31,21.93-9.27,11.92-11,24.83-6.39,39.08,8.22,25.35,16.16,50.78,24.17,76.2,2.9,9.2-.14,13.29-9.79,13.31-9.22,0-18.45,0-27.76,0v23.63h86.06Zm16.4-.06V417.32h77.79V392.63c-11,0-21.55,0-32.12,0-8.18,0-10.87-2.67-10.88-10.79,0-20.19.2-40.38-.07-60.56-.28-20.51,7.51-36.61,24.73-48,.19-.12.2-.53.29-.8l-1,.62c-6.23-10.23-12.57-20.39-18.65-30.69-4.65-7.88-1.13-13.87,8-13.88q38.08-.06,76.19,0c9.2,0,12.72,6,8,13.87-6.14,10.43-12.57,20.7-18.94,31.16C389,284.78,396.63,301.49,396,322.79c-.56,19.19-.12,38.42-.12,57.63,0,10.21-2,12.2-12.28,12.21H353v24.73h71.52V212.45Zm182.35,0v209.5c0,9.61-2.13,11.73-11.73,11.73H71.54c-10.17,0-12.09-2-12.09-12.33V212.57H49.16V462.25h401.9V212.43ZM189.79,37.6c-4.34,53.17-8.62,105.73-12.91,158.31h40.28c1.31-52.93,2.62-105.53,3.93-158.31Zm93.29,158.3h40.29C319,143,314.74,90.35,310.43,37.58H279.14C280.46,90.47,281.77,143.07,283.08,195.9ZM378,196c-7.22-52.9-14.4-105.52-21.61-158.37h-29.8c4.32,53,8.6,105.55,12.91,158.37ZM143.88,37.57,122.29,195.91h38.49c4.31-52.88,8.59-105.46,12.89-158.34ZM432.55,196c-10.15-53-20.22-105.68-30.3-158.38H372.57L394.16,196ZM98,37.59,67.71,196h38.37L127.67,37.59ZM379.51,376.26a7.43,7.43,0,0,0,.43-1.62c0-19.68.13-39.36-.08-59a32.68,32.68,0,0,0-6.94-19.44,35.36,35.36,0,0,0-38.72-12.71,34.57,34.57,0,0,0-24.62,32.32c-.36,19.52-.12,39-.11,58.56a8.83,8.83,0,0,0,.46,1.92h6.63c0-10.69-.06-21.08,0-31.46,0-5.38,3.05-8.7,7.69-8.87,4.88-.17,8.13,3.13,8.23,8.79.14,8.29.05,16.59.05,24.89v6.7h23.82c.1-1.51.25-2.77.26-4,0-9.43-.1-18.87.08-28.3.1-4.9,3.52-8.07,8-8,4.3,0,7.47,3,7.83,7.67.25,3.08.13,6.18.13,9.27,0,7.75,0,15.5,0,23.4ZM237.16,37.61c-1.32,53.13-2.63,105.71-3.94,158.36H267c-1.32-52.88-2.63-105.49-4-158.36ZM481.78,196c-.26-1.38-.38-2.34-.61-3.27q-9.21-38.4-18.46-76.79-9-37.2-18.07-74.37c-.39-1.56-1.9-4-3-4-7.42-.36-14.87-.19-23.1-.19C428.74,90.63,438.8,143.22,448.88,196ZM51.35,196C61.48,143,71.51,90.56,81.68,37.31c-7.37,0-14,.22-20.59-.08-3.69-.17-4.93,1.17-5.76,4.69q-14.82,62.37-30,124.67C23,176.31,20.69,186,18.3,196ZM119.57,377.2h56.19c-5.28-16.68-10.37-32.9-15.67-49.05-.32-1-2.43-1.82-3.74-1.87-5.53-.21-11.07.1-16.59-.16-3.19-.16-4.86.84-5.33,4a24.05,24.05,0,0,1-1.2,3.69Zm24.6-93.07,1.61,1c1.85-1.11,5.11-2,5.33-3.36,1.8-11.33,7.19-20.78,14.16-29.57,1.74-2.2,3.31-4.53,5.37-7.37H124.57C133.82,257.13,143.28,268.5,144.17,284.13ZM370,245H318.82c7.58,15.79,15.35,21.43,28,20.63C357.21,265,366.05,257.19,370,245ZM154.65,310c-2.58-3.64.12-9.95-7.49-9.51-7,.4-3.64,6.24-6.79,9.51Z" style="fill:#22386c"/></svg>