<svg id="6e32aeac-7945-4b75-9308-ecd508be482a" data-name="Layer 1" xmlns="http://www.w3.org/2000/svg" viewBox="0 0 500 500"><title>ico</title><path d="M421.85,0c3.63,1.73,7.53,3,10.82,5.26,9.92,6.72,15.5,16,15.32,28.29,0,2.55,0,5.09,0,8.2h28.86c4.07,0,8.14-.11,12.2,0,6.92.22,10.83,4.15,10.91,11,.1,7.65,0,15.3,0,22.94q0,64.92,0,129.83c0,9.68-3.45,13.11-13.27,13.17-6.35,0-12.7.21-19-.08-3.77-.17-6.32,1.16-8.87,3.82-7.55,7.86-15.4,15.43-23.05,23.19-3.62,3.68-7.62,5.58-12.69,3.44s-6.5-6.32-6.37-11.5c.16-6.13,0-12.27,0-18.87H402.14c-41,0-82,0-123,.13a11.44,11.44,0,0,0-7.05,3.05c-8.14,7.72-16,15.75-23.88,23.73-3.61,3.66-7.58,5.68-12.67,3.46s-6.53-6.32-6.39-11.51c.17-6.13,0-12.27,0-18.63H93.77c0,6.39.26,12.84-.11,19.25a15.56,15.56,0,0,1-2.62,8c-3.85,5.14-10.61,5-15.74,0-8.13-8-16.23-16-24.15-24.16a9.87,9.87,0,0,0-8-3.42c-9.43.23-18.88-.19-28.3.21-6.38.26-11.41-1.37-14.81-7V48.84c3-5.36,7.4-7.59,13.62-7.17,6,.41,12,.1,18,.1H51.15c.44-.91.68-1.19.69-1.49.08-2.26.17-4.54.14-6.8-.13-12.91,6-22.29,16.57-29,2.94-1.87,6.37-3,9.57-4.45h9.77C108,7.82,113.91,16,114.4,37.46c.09,4.06,1.94,4.35,5.12,4.35q48.08-.11,96.15-.07a23.12,23.12,0,0,0,3.05-.47c0-2.78.05-5.36,0-8-.24-12.15,5.36-21.25,15.08-27.9,3.41-2.33,7.52-3.63,11.31-5.4h9.77A17.94,17.94,0,0,0,257,1c15.2,4.82,24.3,17.29,24.22,33.21,0,2.38,0,4.75,0,7.37,1.87.08,3.14.19,4.41.19,31.5,0,63-.08,94.52.11,4.35,0,5.79-1.21,5.36-5.49-1-10.29,1.69-19.68,9.61-26.4,4.92-4.18,11.25-6.7,16.95-10Zm15.63,213.67c1.25-.93,2.29-1.37,2.84-2.16,8.25-11.72,19.54-15.83,33.43-13.51,4.74.79,5.58-1.46,5.56-5.74-.15-33.19-.08-66.39-.08-99.59V62.51H474c-11.72,0-23.44.05-35.16,0-7.69,0-11.68-4-11.81-11.74-.11-6,0-12,0-18.07,0-8.62-3-12-10.5-11.9-7.29.1-10.19,3.41-10.23,11.74,0,6,0,12,0,18.06-.06,8-4,11.89-12.08,11.91-15.3,0-30.6,0-45.9,0-1.4,0-2.81.18-4.5.29,0,13.17,0,26,0,38.83,0,9.34-3.56,12.86-13,12.85-6.18,0-12.37-.14-18.55.1-6.58.26-10.39,4.64-10.2,11.22.15,4.93,4.92,9.49,10.45,9.58,6.5.1,13,0,19.51-.19,7.12-.22,11.82,4.07,11.83,11.13q0,16.35,0,32.71V198H349q38.33,0,76.65,0c7.77,0,11.73,4,11.83,11.64C437.5,210.75,437.48,211.89,437.48,213.69ZM156.24,62.51c-17.08,0-33.49,0-49.9,0-8.79,0-12.55-3.73-12.59-12.38,0-6.67.14-13.34-.08-20-.21-6.39-3.9-9.46-10.62-9.32-6.46.13-9.78,3.13-10,9.43C72.9,36.08,73,41.94,73,47.8c-.07,11.68-3.07,14.68-14.75,14.71-12.32,0-24.64,0-37.49,0V79c0,38.06.07,76.13-.07,114.2,0,3.89,1.11,5,4.95,4.92,8.29-.26,16.59,0,24.89-.13a13.47,13.47,0,0,1,11.1,5c3.23,3.73,6.67,7.28,10.62,11.55a25.93,25.93,0,0,0,.71-2.77C73.53,200.37,76,198,87.55,198h68.69v-6.33q0-22.45,0-44.9c0-7.55,4.43-11.7,11.89-11.49q9.27.27,18.54.19c6.2,0,11.31-4.51,11.38-9.69.09-6.9-4-11.08-11.26-11.25-6-.13-12,0-18.06,0-8.88,0-12.46-3.56-12.49-12.4C156.21,89.12,156.24,76.13,156.24,62.51Zm94.41,151.54c4-4.15,7.84-7.86,11.43-11.76a13.05,13.05,0,0,1,10.38-4.36c14.15.13,28.3.07,42.45.08h7.43V156.15c-10.16.69-19.77,0-28.2-6-8.81-6.3-12.39-15.2-12.82-25.6-.29-7.2,2.75-13.25,7.32-18.61,8.91-10.45,20.64-13.42,34-12.07V62.31H260.44c0-10.34.06-20.1,0-29.85-.07-8.47-3.2-11.78-10.82-11.65-7.15.12-10,3.49-10.07,11.91,0,7,0,14,0,21v8.95H177.38v31.1c3.31,0,6.23,0,9.15,0,16.67.23,32.2,15,32.16,30.57-.05,18.19-13.85,31.81-32.34,31.92-2.87,0-5.75,0-8.61,0V198h5.68l48.31,0C247.62,198,248.08,198.32,250.65,214.05Z" style="fill:#22386c"/><path d="M218.15,416c5.25,7,10.82,13.49,15.38,20.67,4.32,6.81,6,14.69,6,22.84,0,9.76.06,19.53,0,29.29-.07,6.75-4.25,11.18-10.27,11.2s-10.35-4.54-10.42-11.11c-.11-9.28,0-18.55,0-27.83,0-15.84-6.78-25.61-21.8-31-19-6.75-38-13.46-57-20-3.3-1.13-4.76-2.55-4.49-6.16.33-4.52.08-9.07.08-13.77h-21c0,4.54-.25,9.25.09,13.92.24,3.43-1.14,4.81-4.21,5.88-20.1,7-40.21,13.94-60.17,21.32-12.5,4.62-18.56,14.29-18.88,27.46-.23,9.76,0,19.52-.08,29.29,0,7.3-4.29,12-10.61,11.91-6.16-.12-10.21-4.64-10.08-11.85.21-12.83-.89-25.94,1.41-38.41,3.56-19.33,15.59-32.85,34.57-39.49,14.26-5,28.49-10.07,42.8-14.91,3.21-1.09,4.38-2.54,4.59-6.14.36-6.4-1.31-11-6.16-15.68C77.5,363.6,72.54,351,73,336.57c.29-9.74-.44-19.7,1.38-29.15,4.69-24.32,28.41-42.63,52.52-41.8,23.58.82,46.5,20.93,49.47,45,1.45,11.68,1.06,23.79-.11,35.55-1.24,12.57-8.22,22.75-17.63,31.15-2,1.78-3.57,14-2,16a5.82,5.82,0,0,0,2.53,1.31c2.59,1,5.37,1.55,7.78,2.83,13.92,7.42,27.44,6.75,41.63,0,9.89-4.71,10.41-3.86,10-14.79a8.32,8.32,0,0,0-2.35-5.32c-12.26-11.33-19-25-18.29-41.92.36-9.25-.53-18.74,1.27-27.69,4.92-24.6,28.06-42.67,52.3-42.1,23.35.55,46.11,20,49.57,44.2,1.7,11.94,1.22,24.41.06,36.49s-7.93,22.18-17,30.46c-2.38,2.18-4.43,13.65-2.71,16.29.53.82,1.82,1.24,2.85,1.61,8.42,3,16.82,6.05,25.3,8.84a9.44,9.44,0,0,0,5.57,0c8.49-2.78,16.85-5.95,25.34-8.74,2.46-.81,3.48-2,3.2-4.51a18.87,18.87,0,0,1,0-4.38c.54-4.35-1-7.41-4.27-10.53-11-10.41-17-23.27-16.49-38.69.3-9.74-.49-19.71,1.33-29.16,4.89-25.41,31-44.55,55.35-41.77,26.3,3,47.37,26.55,47.27,53,0,9.26.41,18.63-.74,27.77-1.53,12.21-8.1,22.14-17.16,30.39-2.31,2.1-4.32,14.11-2.42,16.29,1,1.12,2.78,1.59,4.29,2.12,14.85,5.26,29.73,10.43,44.58,15.71,18.2,6.47,32.94,25.91,33.76,45.14.48,11.05.3,22.13.17,33.2-.07,6.34-4.52,10.65-10.35,10.61s-10.26-4.53-10.34-10.72c-.13-9.6,0-19.2,0-28.8-.05-15-6.44-24.64-20.54-29.81-19.21-7.06-38.55-13.78-57.93-20.38-3.72-1.26-5.2-2.94-4.85-6.91.38-4.34.08-8.74.08-13.17h-21c0,4.55-.25,9.26.08,13.93.25,3.43-1.12,4.82-4.2,5.88-18.74,6.44-37.43,13.06-56.12,19.65-16.42,5.79-22.89,14.81-23,32.05,0,8.95,0,17.9,0,26.85-.06,6.87-4.46,11.54-10.61,11.43-6-.12-10-4.56-10.1-11.37-.09-9.44-.07-18.87,0-28.31,0-16.33,7-29.44,18.78-40.32,1.16-1.07,2.36-2.11,3.92-3.51-6.6-2.33-12.64-4.61-18.78-6.54-2.95-.93-4.18-2.38-4-5.55.26-4.69.07-9.4.07-14.18H239.53c0,4.84.25,9.87-.15,14.85a6.18,6.18,0,0,1-3.13,4.39C230.1,412,223.75,414,218.15,416Zm-124-88.13h-.31c0,4.39-.17,8.79,0,13.18.76,16.43,12,27.45,29.3,28.76,16.1,1.23,30-8.46,32.13-24.17a141.9,141.9,0,0,0,.3-33.53c-1.7-16-14.13-25.72-30.42-25.66-16.82.07-28.67,9.74-30.93,25.83C93.49,317.36,94.1,322.65,94.1,327.85Zm124.36.1.3,0c0,4.06-.1,8.13,0,12.2.5,16.77,11.69,28.16,29,29.6,16.62,1.38,30.45-8.4,32.6-24.72a140.32,140.32,0,0,0,.34-32.58c-1.66-16-13.73-25.74-30.17-26.07-16.15-.33-28.15,8.93-31,24.56C218.49,316.5,218.77,322.28,218.46,328Zm125,.12h.36c0,4.4-.18,8.8,0,13.18.78,16.2,11.93,27.08,29,28.47,16.25,1.32,30.16-8.17,32.31-23.85a143.6,143.6,0,0,0,.46-33.54c-1.6-16-13.52-25.46-30.27-25.91-16-.43-28.18,9.07-30.92,24.64C343.49,316.62,343.76,322.4,343.46,328.07Z" style="fill:#22386c"/><path d="M73,479.07c0,3.57.19,7.15,0,10.7-.39,6-4.72,10.15-10.33,10.21a10.21,10.21,0,0,1-10.48-10c-.33-7.12-.31-14.28,0-21.41a10.4,10.4,0,0,1,10.3-10.27c5.53-.06,10,4.08,10.5,10.07.28,3.55,0,7.14,0,10.71Z" style="fill:#22386c"/><path d="M198,479.33c0,3.4.19,6.82,0,10.22-.42,6.33-4.82,10.53-10.62,10.43-5.56-.09-10-4.21-10.24-10.3-.31-7.12-.31-14.29,0-21.41a10.51,10.51,0,0,1,10.58-10,10.67,10.67,0,0,1,10.28,10.37C198.14,472.18,198,475.76,198,479.33Z" style="fill:#22386c"/><path d="M302,479.3c0-3.25-.1-6.49,0-9.73.23-6.63,4.48-11.19,10.34-11.28s10.4,4.4,10.58,11,.21,13.31,0,20c-.21,6.35-4.54,10.66-10.31,10.73-6,.08-10.31-4.32-10.61-11C301.87,485.79,302,482.54,302,479.3Z" style="fill:#22386c"/><path d="M427,479.45c0-3.41-.14-6.82,0-10.22.34-6.55,4.82-11,10.69-11,5.59.08,10.07,4.61,10.27,10.87.21,6.65.2,13.31,0,20s-4.74,11-10.69,10.88-10.12-4.65-10.3-11.28C426.89,485.62,427,482.54,427,479.45Z" style="fill:#22386c"/></svg>