<svg id="3605cc99-eb94-4441-842a-4cc1e3cc4a39" data-name="Layer 1" xmlns="http://www.w3.org/2000/svg" viewBox="0 0 500 500"><title>ico</title><path d="M0,461.43c5.6-8.86,10.81-18,16.87-26.53,11.06-15.54,22.55-30.79,34-46,2-2.71,2.23-4.94,1.13-8C43.51,356.67,35,332.5,26.8,308.2c-4.27-12.73-3.55-25.33,1.33-38.12,10.5-27.52,20.26-55.31,30.35-83,.56-1.53,1.28-3,2.5-5.85,2.72,24.38,5.49,47.22,7.72,70.1,1.31,13.41,4.78,25.57,15.55,34.57s22.87,11.87,36.48,9.05c2-.41,3.94-.9,6.8-1.56-2,5.69-3.7,10.65-5.57,16,6.21,3.85,12.35,7.67,18.51,11.47,12.54,7.75,25,15.58,37.64,23.2s17.49,18.26,16,32.83c-3.14,30.89-5.62,61.84-8.57,92.75-1.59,16.68-15.32,28.24-31.66,27.09a29.2,29.2,0,0,1-27-31.69c1.67-22.49,3.56-45,6.13-67.37.94-8.18-.15-13.86-8.37-17.21-3.94-1.61-7.4-4.39-12.09-7.26.88,2.84,1.41,4.7,2,6.52,3.25,9.51,2.35,18.69-3.53,26.77q-29,39.74-58.5,79.07c-6.93,9.2-16.84,12.74-28.17,10.72-11.55-2-19.16-9.14-23.08-20.19C.94,475.05.45,474,0,472.89Z" style="fill:#22386c"/><path d="M385,473H322.33c-4.44,13.91-13.53,22.54-28.77,22-14-.46-22.42-8.74-26.62-22.2h-16c-15.48,0-21.24-5.81-21.24-21.46q0-86.71,0-173.42c0-4.95,1.24-11.49-1.35-14.36-2.25-2.49-9.11-.92-13.94-1-8.15-.08-16.35.43-24.46-.22a22.93,22.93,0,0,1-11.19-4.39c-2.55-1.88-4.15-2.07-6.85-1q-24.33,9.87-48.76,19.47c-18.49,7.31-34.51-2.28-36.83-22.1q-4.07-34.89-8-69.8c-1.84-16.47,6.28-28.36,20.87-30.82A24.93,24.93,0,0,1,128.13,175c1.61,12,2.8,24.12,4.19,36.19.23,2,.57,4.05,1,6.7l39.4-15.68c4.83-1.92,9.67-3.82,14.49-5.75,9.68-3.87,18.87-3,26.86,3.79s10.57,15.58,8,25.81a8.07,8.07,0,0,0-.23,1.54,6.55,6.55,0,0,0,.36,1.42c1.94,0,4,.07,6.06,0,33.55-1.21,35.69,2.27,35.38,35.54-.51,55.89-.14,111.78-.14,167.68v6.94h6.92q92.7,0,185.4,0c9.61,0,16.1,4.49,18.17,12.37a16.77,16.77,0,0,1-15.47,21.23c-5,.25-10.07-.11-15.09.18a5.1,5.1,0,0,0-3.7,2.41c-6,13.5-15.16,20.21-27.55,19.81s-21.3-7.33-26.36-20.66A13.85,13.85,0,0,0,385,473Z" style="fill:#22386c"/><path d="M399.59,415.78q-37.74,0-75.5,0c-16,0-24.73-8.76-24.77-24.82q-.07-28.36,0-56.75c0-16.28,8.8-24.93,25.21-24.94H475c16.3,0,25,8.75,25,25.11q0,28.64,0,57.28c0,15-8.93,24.07-23.85,24.11C450.62,415.83,425.1,415.78,399.59,415.78Z" style="fill:#22386c"/><path d="M347.12,278.55c-13.88,0-27.77.06-41.66,0-15-.08-24-9.07-24.09-24q-.09-26,0-52.07c.06-14.36,9.12-23.56,23.35-23.59q42.43-.12,84.88,0c14.1,0,23.06,9,23.17,23.11q.19,26.82,0,53.64c-.12,13.78-9.11,22.71-22.94,22.85C375.59,278.67,361.36,278.55,347.12,278.55Z" style="fill:#22386c"/><path d="M145.55,107.48a52.19,52.19,0,1,1,52.19-52.39A52.12,52.12,0,0,1,145.55,107.48Z" style="fill:#22386c"/><path d="M147.48,194.06c-.9-7.45-1.56-14-2.5-20.5-4.67-32.27-39.23-47.38-66.24-29-.67.45-1.37.87-2,1.31l-.93-.94c3.14-3.19,6-6.71,9.47-9.52A50.3,50.3,0,0,1,166.56,183c-.28,1.63-1.4,3.81-2.73,4.44C158.72,189.84,153.36,191.73,147.48,194.06Z" style="fill:#22386c"/></svg>